# xmcd
#
# Track frame offsets:
#	150
#	19125
#	33188
#	43756
#	61050
#	75995
#	90650
#	107009
#	123434
#	140614
#	161168
#	177701
#
# Disc length: 2524 seconds
#
# Revision: 1
# Processed by: cddbd v1.5.2PL0 Copyright (c) Steve Scherf et al.
# Submitted via: EZCDAudioConverter 1.0.2.1
#
DISCID=9909da0c
DTITLE=Eigil Linddahl
DYEAR=2001
DGENRE=Country
TTITLE0=Oldemor og den lille dreng
TTITLE1=Skriv til mig
TTITLE2=En drink eller to
TTITLE3=Ludoman
TTITLE4=Lim på stolen
TTITLE5=Hooked på hat og støvler
TTITLE6=Ferietur til skagen
TTITLE7=Bag facaden
TTITLE8=Jeg ka' ikke la' dig vær'
TTITLE9=Regnen drypper fra mit hår
TTITLE10=Jeg ka' de det
TTITLE11=Godnat, men ikke farvel
EXTD=
EXTT0=
EXTT1=
EXTT2=
EXTT3=
EXTT4=
EXTT5=
EXTT6=
EXTT7=
EXTT8=
EXTT9=
EXTT10=
EXTT11=
PLAYORDER=
